<svg width="512" height="512" viewBox="0 0 512 512" fill="none" xmlns="http://www.w3.org/2000/svg">
<path d="M5.14286 324.485C5.52381 322.962 6.28571 322.39 7.42857 322.771C8.95237 322.771 10.2857 322.581 11.4286 322.2C8.38095 319.153 6.47619 315.154 5.71429 310.204C4.95237 304.872 3.04762 300.492 0 297.065C0.761905 295.161 1.33334 293.257 1.71429 291.353C2.47619 289.449 4.19047 288.687 6.85715 289.068C5.71429 280.689 5.90476 272.882 7.42857 265.646C8.95237 258.41 11.2381 251.555 14.2858 245.081C17.7142 238.608 21.5237 232.323 25.7143 226.23C30.2857 219.756 34.6666 213.283 38.8571 206.807C42.2857 206.046 44.381 206.427 45.1429 207.95C45.9047 209.092 47.2381 208.711 49.1428 206.807C55.2381 202.618 59.4286 198.049 61.7142 193.098C64 187.766 65.1428 182.054 65.1428 175.961C68.5714 166.059 72.3809 156.348 76.5715 146.827C81.1429 136.925 86.2857 127.785 92 119.407C97.7142 111.029 103.809 103.793 110.286 97.6997C116.762 91.2256 123.809 86.2748 131.428 82.8473C136.762 78.2774 143.428 74.0882 151.429 70.2798C159.81 66.4715 168.571 63.6154 177.714 61.7112C187.237 59.4262 196.952 58.2837 206.858 58.2837C216.762 57.9029 225.905 58.855 234.285 61.1399C236.19 61.9016 237.333 61.5208 237.714 59.9975C238.095 58.0933 239.048 57.1412 240.571 57.1412C259.618 59.4262 276.571 63.2345 291.429 68.5662C306.666 73.8977 319.619 81.3239 330.286 90.8448C337.524 102.27 344.38 114.647 350.856 127.976C357.334 140.924 362.286 154.634 365.714 169.106C369.524 183.197 371.239 197.859 370.858 213.092C370.475 228.324 367.238 243.558 361.143 258.791C347.809 275.548 331.618 289.068 312.571 299.35C293.523 309.251 272.953 317.629 250.857 324.485C229.143 330.959 206.477 336.291 182.857 340.48C159.619 344.669 136.952 349.238 114.857 354.189C115.238 364.472 115.238 375.516 114.857 387.321C114.476 398.747 113.143 410.362 110.857 422.168C108.952 433.593 105.905 444.827 101.714 455.871C97.9047 466.915 92.5714 477.198 85.7143 486.719C78.0952 486.338 70.0952 487.1 61.7142 489.004C53.7142 490.908 46.4761 492.812 40 494.716C36.9524 492.812 33.9048 490.908 30.8571 489.004C28.1904 487.48 24.7619 486.529 20.5714 486.148C21.7143 481.577 20.5714 476.817 17.1428 471.867C14.0952 466.915 10.8571 462.155 7.42857 457.585C4.38095 452.635 2.28571 447.874 1.14286 443.304C0.380953 438.354 2.66666 433.974 8 430.165C4.95237 427.5 3.42857 423.311 3.42857 417.598C4.95237 419.122 6.85715 419.883 9.14286 419.883C8.38095 413.028 9.14285 404.84 11.4286 395.32C14.0952 385.798 16.1905 376.469 17.7142 367.328C19.619 357.807 20 349.238 18.8572 341.622C17.7142 333.625 13.1428 327.913 5.14286 324.485ZM153.715 190.813C152.191 195.002 150.857 198.81 149.714 202.238C148.952 205.284 147.999 208.141 146.857 210.807C145.714 213.472 144.381 216.138 142.857 218.804C141.715 221.47 140.381 224.516 138.857 227.943C139.619 230.23 141.143 231.943 143.428 233.085C145.714 234.228 147.238 235.942 147.999 238.227C153.334 235.561 158.667 233.657 164 232.514C169.333 230.991 174.666 229.849 180 229.086C185.333 228.324 190.667 227.373 196 226.23C201.333 225.088 206.858 223.184 212.572 220.518C218.286 217.852 224.19 215.757 230.286 214.234C236.762 212.33 243.048 210.426 249.143 208.522C255.238 206.618 261.142 204.522 266.857 202.238C272.572 199.572 277.524 196.144 281.714 191.955C276.381 187.005 268.381 182.625 257.714 178.817C247.047 175.008 235.428 172.724 222.857 171.962C210.667 170.819 198.286 171.581 185.714 174.247C173.524 176.913 162.857 182.435 153.715 190.813ZM511.428 92.5585C511.428 95.9859 510.857 100.175 509.714 105.126C508.952 110.077 508.191 115.028 507.429 119.978C506.667 124.929 506.476 129.499 506.857 133.688C507.238 137.497 508.952 139.972 512 141.115C505.143 161.298 500.381 178.246 497.714 191.955C495.429 205.665 493.333 218.804 491.428 231.372C489.904 243.558 487.81 256.506 485.143 270.217C482.477 283.926 477.714 300.682 470.857 320.486C466.667 332.672 461.524 341.241 455.429 346.192C449.334 350.762 442.856 353.047 436 353.047C429.143 353.047 422.095 351.142 414.857 347.334C407.619 343.526 400.952 339.337 394.857 334.767C393.714 327.532 393.524 318.772 394.286 308.49C395.429 297.827 396.762 286.783 398.285 275.357C399.809 263.933 401.333 253.079 402.857 242.797C404.38 232.134 405.523 223.184 406.285 215.948C410.096 211.759 412.762 208.331 414.286 205.665C415.81 202.999 416.761 200.144 417.142 197.097C417.904 194.051 418.476 190.241 418.857 185.671C419.238 181.102 420.19 174.628 421.714 166.249C422.476 162.06 422.095 158.442 420.571 155.396C419.428 151.968 419.238 148.731 420 145.684C420.762 144.161 421.905 143.019 423.428 142.257C425.333 141.495 426.476 140.162 426.857 138.258C428.381 133.307 428.762 129.499 428 126.833C427.238 123.787 427.81 120.169 429.715 115.98C431.619 112.933 433.905 108.173 436.572 101.698C439.619 94.8435 440.762 87.7981 440 80.5623C443.428 77.8965 446.667 74.8499 449.715 71.4224C452.762 67.9949 455.81 64.9483 458.857 62.2824C462.286 59.2358 465.905 56.7604 469.714 54.8562C473.905 52.9521 478.857 52 484.571 52C487.619 56.1891 489.904 60.1879 491.428 63.9962C492.952 67.8045 494.286 71.4224 495.429 74.8499C496.952 78.2774 498.857 81.5144 501.143 84.561C503.428 87.6077 506.857 90.2735 511.428 92.5585ZM454.857 417.598C455.619 420.645 456.191 423.5 456.571 426.166C456.952 428.832 457.333 431.689 457.714 434.735C455.429 442.732 452.952 449.969 450.285 456.443C449.143 459.109 448.381 460.822 448 461.583C447.619 462.345 447.429 462.917 447.429 463.298C447.429 463.679 447.619 464.249 448 465.011C448.381 465.392 448.572 466.915 448.572 469.582L445.714 476.437C443.809 479.102 441.524 481.196 438.857 482.719C436.572 484.243 434.095 485.576 431.428 486.719C430.285 487.48 428.953 488.052 427.429 488.433C426.286 489.195 425.333 489.956 424.571 490.718L422.856 497.573L414.857 498.715C408.762 500.238 403.238 501 398.285 501H392C387.428 496.811 383.81 493.573 381.143 491.289C378.476 489.004 375.429 486.91 372 485.004C367.809 477.769 365.333 471.486 364.572 466.153C363.81 461.203 362.857 457.966 361.714 456.443L353.714 448.445L360.571 443.304L353.714 432.45C358.285 429.023 361.714 426.547 364 425.024C366.285 423.5 368.19 421.977 369.714 420.454C371.62 418.55 373.524 416.265 375.429 413.599C377.334 410.933 380.381 406.553 384.571 400.46L389.715 393.034L396.572 397.033C398.476 398.175 401.905 399.318 406.857 400.46C412.19 401.222 416.761 401.984 420.571 402.745C426.667 404.649 432.571 406.173 438.285 407.315C444.381 408.077 449.143 409.981 452.571 413.028L454.857 417.598Z" fill="#0098C3"/>
<path d="M5.14286 284.485C5.52381 282.962 6.28571 282.39 7.42857 282.771C8.95237 282.771 10.2857 282.581 11.4286 282.2C8.38095 279.153 6.47619 275.154 5.71429 270.204C4.95237 264.872 3.04762 260.492 0 257.065C0.761905 255.161 1.33334 253.257 1.71429 251.353C2.47619 249.449 4.19047 248.687 6.85715 249.068C5.71429 240.689 5.90476 232.882 7.42857 225.646C8.95237 218.41 11.2381 211.555 14.2858 205.081C17.7142 198.608 21.5237 192.323 25.7143 186.23C30.2857 179.756 34.6666 173.283 38.8571 166.807C42.2857 166.046 44.381 166.427 45.1429 167.95C45.9047 169.092 47.2381 168.711 49.1428 166.807C55.2381 162.618 59.4286 158.049 61.7142 153.098C64 147.766 65.1428 142.054 65.1428 135.961C68.5714 126.059 72.3809 116.348 76.5715 106.827C81.1429 96.9254 86.2857 87.7854 92 79.4071C97.7142 71.0289 103.809 63.7931 110.286 57.6997C116.762 51.2256 123.809 46.2748 131.428 42.8473C136.762 38.2774 143.428 34.0882 151.429 30.2798C159.81 26.4715 168.571 23.6154 177.714 21.7112C187.237 19.4262 196.952 18.2837 206.858 18.2837C216.762 17.9029 225.905 18.855 234.285 21.1399C236.19 21.9016 237.333 21.5208 237.714 19.9975C238.095 18.0933 239.048 17.1412 240.571 17.1412C259.618 19.4262 276.571 23.2345 291.429 28.5662C306.666 33.8977 319.619 41.3239 330.286 50.8448C337.524 62.2697 344.38 74.6468 350.856 87.9758C357.334 100.924 362.286 114.634 365.714 129.106C369.524 143.197 371.239 157.859 370.858 173.092C370.475 188.324 367.238 203.558 361.143 218.791C347.809 235.548 331.618 249.068 312.571 259.35C293.523 269.251 272.953 277.629 250.857 284.485C229.143 290.959 206.477 296.291 182.857 300.48C159.619 304.669 136.952 309.238 114.857 314.189C115.238 324.472 115.238 335.516 114.857 347.321C114.476 358.747 113.143 370.362 110.857 382.168C108.952 393.593 105.905 404.827 101.714 415.871C97.9047 426.915 92.5714 437.198 85.7143 446.719C78.0952 446.338 70.0952 447.1 61.7142 449.004C53.7142 450.908 46.4761 452.812 40 454.716C36.9524 452.812 33.9048 450.908 30.8571 449.004C28.1904 447.48 24.7619 446.529 20.5714 446.148C21.7143 441.577 20.5714 436.817 17.1428 431.867C14.0952 426.915 10.8571 422.155 7.42857 417.585C4.38095 412.635 2.28571 407.874 1.14286 403.304C0.380953 398.354 2.66666 393.974 8 390.165C4.95237 387.5 3.42857 383.311 3.42857 377.598C4.95237 379.122 6.85715 379.883 9.14286 379.883C8.38095 373.028 9.14285 364.84 11.4286 355.32C14.0952 345.798 16.1905 336.469 17.7142 327.328C19.619 317.807 20 309.238 18.8572 301.622C17.7142 293.625 13.1428 287.913 5.14286 284.485ZM153.715 150.813C152.191 155.002 150.857 158.81 149.714 162.238C148.952 165.284 147.999 168.141 146.857 170.807C145.714 173.472 144.381 176.138 142.857 178.804C141.715 181.47 140.381 184.516 138.857 187.943C139.619 190.23 141.143 191.943 143.428 193.085C145.714 194.228 147.238 195.942 147.999 198.227C153.334 195.561 158.667 193.657 164 192.514C169.333 190.991 174.666 189.849 180 189.086C185.333 188.324 190.667 187.373 196 186.23C201.333 185.088 206.858 183.184 212.572 180.518C218.286 177.852 224.19 175.757 230.286 174.234C236.762 172.33 243.048 170.426 249.143 168.522C255.238 166.618 261.142 164.522 266.857 162.238C272.572 159.572 277.524 156.144 281.714 151.955C276.381 147.005 268.381 142.625 257.714 138.817C247.047 135.008 235.428 132.724 222.857 131.962C210.667 130.819 198.286 131.581 185.714 134.247C173.524 136.913 162.857 142.435 153.715 150.813ZM511.428 52.5585C511.428 55.9859 510.857 60.1752 509.714 65.126C508.952 70.0767 508.191 75.0276 507.429 79.9784C506.667 84.9291 506.476 89.4992 506.857 93.6883C507.238 97.4966 508.952 99.9719 512 101.115C505.143 121.298 500.381 138.246 497.714 151.955C495.429 165.665 493.333 178.804 491.428 191.372C489.904 203.558 487.81 216.506 485.143 230.217C482.477 243.926 477.714 260.682 470.857 280.486C466.667 292.672 461.524 301.241 455.429 306.192C449.334 310.762 442.856 313.047 436 313.047C429.143 313.047 422.095 311.142 414.857 307.334C407.619 303.526 400.952 299.337 394.857 294.767C393.714 287.532 393.524 278.772 394.286 268.49C395.429 257.827 396.762 246.783 398.285 235.357C399.809 223.933 401.333 213.079 402.857 202.797C404.38 192.134 405.523 183.184 406.285 175.948C410.096 171.759 412.762 168.331 414.286 165.665C415.81 162.999 416.761 160.144 417.142 157.097C417.904 154.051 418.476 150.241 418.857 145.671C419.238 141.102 420.19 134.628 421.714 126.249C422.476 122.06 422.095 118.442 420.571 115.396C419.428 111.968 419.238 108.731 420 105.684C420.762 104.161 421.905 103.019 423.428 102.257C425.333 101.495 426.476 100.162 426.857 98.2583C428.381 93.3075 428.762 89.4992 428 86.8333C427.238 83.7867 427.81 80.1688 429.715 75.9796C431.619 72.933 433.905 68.1726 436.572 61.6985C439.619 54.8435 440.762 47.7981 440 40.5623C443.428 37.8965 446.667 34.8499 449.715 31.4224C452.762 27.9949 455.81 24.9483 458.857 22.2824C462.286 19.2358 465.905 16.7604 469.714 14.8562C473.905 12.9521 478.857 12 484.571 12C487.619 16.1891 489.904 20.1879 491.428 23.9962C492.952 27.8045 494.286 31.4224 495.429 34.8499C496.952 38.2774 498.857 41.5144 501.143 44.561C503.428 47.6077 506.857 50.2735 511.428 52.5585ZM454.857 377.598C455.619 380.645 456.191 383.5 456.571 386.166C456.952 388.832 457.333 391.689 457.714 394.735C455.429 402.732 452.952 409.969 450.285 416.443C449.143 419.109 448.381 420.822 448 421.583C447.619 422.345 447.429 422.917 447.429 423.298C447.429 423.679 447.619 424.249 448 425.011C448.381 425.392 448.572 426.915 448.572 429.582L445.714 436.437C443.809 439.102 441.524 441.196 438.857 442.719C436.572 444.243 434.095 445.576 431.428 446.719C430.285 447.48 428.953 448.052 427.429 448.433C426.286 449.195 425.333 449.956 424.571 450.718L422.856 457.573L414.857 458.715C408.762 460.238 403.238 461 398.285 461H392C387.428 456.811 383.81 453.573 381.143 451.289C378.476 449.004 375.429 446.91 372 445.004C367.809 437.769 365.333 431.486 364.572 426.153C363.81 421.203 362.857 417.966 361.714 416.443L353.714 408.445L360.571 403.304L353.714 392.45C358.285 389.023 361.714 386.547 364 385.024C366.285 383.5 368.19 381.977 369.714 380.454C371.62 378.55 373.524 376.265 375.429 373.599C377.334 370.933 380.381 366.553 384.571 360.46L389.715 353.034L396.572 357.033C398.476 358.175 401.905 359.318 406.857 360.46C412.19 361.222 416.761 361.984 420.571 362.745C426.667 364.649 432.571 366.173 438.285 367.315C444.381 368.077 449.143 369.981 452.571 373.028L454.857 377.598Z" fill="#FFEB00"/>
</svg>
